<?xml version="1.0" encoding="UTF-8"?>
<svg width="800px" height="200px" viewBox="0 0 385 80" version="1.1" xmlns="http://www.w3.org/2000/svg" xmlns:xlink="http://www.w3.org/1999/xlink">
    <title>SVG /logo_primary_color_onLight</title>
    <g id="logo_primary_color_onLight" stroke="none" stroke-width="1" fill="none" fill-rule="evenodd">
        <g id="logo" transform="translate(2.000000, 5.000000)">
            <g id="UI-Element-/logoMark" fill="#4B39EF">
                <path d="M60.6346953,0 C62.6766247,0 64.5668003,1.10495747 65.5243999,2.90117979 C66.4419034,4.6217036 66.4029644,6.6491771 65.4226664,8.33204562 L65.3892661,8.38864008 L56.797229,22.761686 C55.8255887,24.3869668 54.0715472,25.4013856 52.1967598,25.4230132 L52.1355835,25.4233661 L42.3240877,25.4232919 L46.4020854,34.7593498 L46.418343,34.7867208 L46.4434232,34.8308069 C47.4037834,36.5666058 47.3803832,38.6303532 46.3844195,40.3402976 L46.3508605,40.3971638 L37.7588233,54.7702097 C36.7871954,56.3954699 35.0331654,57.4099089 33.1584841,57.4315369 L33.0973113,57.4318897 L21.054868,57.431817 L12.397783,66.5626963 L12.381404,66.579656 C11.5667519,67.4077925 10.4660547,67.8697674 9.31845932,67.8697674 C9.03158195,67.8697674 8.74451893,67.8407504 8.46053445,67.78286 C7.06066209,67.4970732 5.89759198,66.5365076 5.33774109,65.2116882 L5.32194821,65.1738683 L0.766132712,54.7156269 L0.742167543,54.6755452 L0.717275762,54.632369 C0.713141116,54.6250284 0.708935979,54.6174795 0.704544128,54.6095186 C-0.255835778,52.873858 -0.232574459,50.8101289 0.763263179,49.1001108 L0.796817966,49.0432421 L9.1302082,35.1028968 L2.98975103,21.0451675 L3.10227269,20.987851 L3.10056982,20.9794009 C2.84075067,19.6863125 3.04990427,18.3378091 3.71716016,17.1567263 L3.75401019,17.0924709 L3.78807474,17.034726 L12.3801634,2.66159385 C13.3519158,1.03641408 15.106033,0.0219807406 16.9805888,0 L17.0417574,0 L60.6346953,0 Z M15.5195195,57.3225554 L6.39039039,57.3224387 L9.07169646,63.524976 L9.07828615,63.541449 C9.12273694,63.6525677 9.19463187,63.7133666 9.30163972,63.735366 C9.39709257,63.7550591 9.47431915,63.734786 9.54736128,63.6682235 L9.56012884,63.6557961 L15.5195195,57.3225554 Z M41.6168093,35.9984915 L14.0216465,35.9984915 C13.9911716,35.9984915 13.9606996,35.9995366 13.9302799,36.001614 L13.9219219,36.0022345 L21.4882965,53.309868 L33.0959434,53.309868 C33.5730765,53.309868 34.0327067,53.0544306 34.2940588,52.6441464 L34.3148115,52.6105427 L42.9192768,38.2286774 C43.1759887,37.7996737 43.2043728,37.3019201 43.0009734,36.8539946 C42.7664787,36.3374854 42.2221429,35.9984915 41.6168093,35.9984915 Z M11.1531091,39.5524827 L4.32399048,51.062932 C4.05225121,51.5210685 4.03650152,52.0575917 4.27984007,52.5297594 L4.30565139,52.577776 L4.31940409,52.6012923 L4.34696832,52.6463701 L4.40158314,52.7275886 L4.46255209,52.8069126 L4.5208832,52.8735444 L4.53100242,52.8843407 L4.57044656,52.9242981 L4.60472271,52.9569161 C4.8195403,53.1519149 5.08509195,53.2708858 5.37798252,53.3014535 L5.44377743,53.3070714 L5.48187708,53.3090633 L5.53015153,53.309868 L17.1171171,53.309868 L11.1531091,39.5524827 Z M9.35735736,25.4511628 L12.3566295,32.3298554 L12.4150565,32.309936 C12.933009,32.1366082 13.4745507,32.0426544 14.0220258,32.0340994 L14.1041893,32.0334574 L40.8528529,32.0333824 L37.9829278,25.4512803 L9.35735736,25.4511628 Z M60.5584793,4.01257071 L32.8648649,4.01257071 L40.433526,21.3239472 L52.0369685,21.3239472 C52.5149756,21.3239472 52.9750143,21.0683385 53.2365011,20.6578192 L53.257264,20.6241964 L61.8622959,6.24260836 C62.1188905,5.81371252 62.1472577,5.31633189 61.9440926,4.86879795 C61.7143559,4.36288769 61.1876053,4.02709021 60.5970798,4.01302997 L60.5584793,4.01257071 Z M28.6254238,4.01257071 L17.086134,4.01257071 C16.6115992,4.01257071 16.1539321,4.26755772 15.8935808,4.67743963 L15.8729072,4.71101076 L7.29048824,19.092876 C7.03426329,19.5221661 7.00594604,20.0200437 7.20898958,20.4668315 C7.45243415,20.8921067 7.97837971,21.2285593 8.56993302,21.2428002 L8.62887936,21.2429158 L26.9202206,21.2429158 L30.3046767,12.2485869 L26.4965071,0.594432927 L28.6254238,0.594432927 C28.6112365,0.594432927 28.5970998,0.596676253 28.5830846,0.60095665 C28.1165306,0.741598055 27.7225633,1.161871 27.4792528,1.60967668 L27.4641691,1.63850707 L27.4473275,1.65833747 L23.3899798,7.70668068 L22.4422765,8.97212909 L19.415872,16.0883345 L14.9296051,25.4518094 L8.24884741,25.4518094 L11.5412791,21.3239472 L17.7997152,21.3239472 L24.8542165,11.1320971 L17.6147636,0.594432927 L28.6254238,0.594432927 Z"/>
            </g>
            <text id="Medicare" font-family="Arial, Helvetica, sans-serif" font-size="36" font-weight="bold" fill="#4B39EF" x="70" y="50"></text>
        </g>
    </g>
</svg>
